<svg xmlns="http://www.w3.org/2000/svg" viewBox="0 0 64 64" role="img" aria-labelledby="title">
  <title>WhatsApp</title>
  <circle cx="32" cy="32" r="32" fill="#25D366"/>
  <path fill="#fff" d="M32 12c-11.04 0-20 8.77-20 19.6 0 3.46.94 6.84 2.72 9.8L12 52l10.97-2.86A20.2 20.2 0 0 0 32 51.2c11.05 0 20-8.77 20-19.6S43.05 12 32 12Zm0 35.95c-2.79 0-5.52-.72-7.92-2.1l-.57-.32-6.5 1.7 1.74-6.24-.37-.61a15.4 15.4 0 0 1-2.37-8.18c0-8.65 7.18-15.68 16-15.68 4.27 0 8.28 1.64 11.3 4.61a15.37 15.37 0 0 1 4.69 11.07c0 8.65-7.18 15.68-16 15.68Zm8.77-11.88c-.48-.24-2.85-1.39-3.29-1.55-.44-.16-.76-.24-1.08.24-.32.48-1.24 1.55-1.52 1.87-.28.32-.56.36-1.04.12-.48-.24-2.03-.74-3.86-2.36-1.43-1.27-2.39-2.83-2.67-3.31-.28-.48-.03-.74.21-.98.22-.22.48-.56.72-.84.24-.28.32-.48.48-.8.16-.32.08-.6-.04-.84-.12-.24-1.08-2.57-1.48-3.52-.39-.93-.79-.8-1.08-.82l-.92-.02c-.32 0-.84.12-1.28.6-.44.48-1.68 1.63-1.68 3.97 0 2.34 1.72 4.6 1.96 4.92.24.32 3.37 5.31 8.32 7.23 4.95 1.92 4.95 1.28 5.85 1.2.9-.08 2.85-1.16 3.25-2.28.4-1.12.4-2.08.28-2.28-.12-.2-.44-.32-.92-.56Z"/>
</svg>
